<?xml version="1.0" standalone="no"?>
<!DOCTYPE svg PUBLIC "-//W3C//DTD SVG 20010904//EN"
 "http://www.w3.org/TR/2001/REC-SVG-20010904/DTD/svg10.dtd">
<svg version="1.0" xmlns="http://www.w3.org/2000/svg"
 width="512.000000pt" height="512.000000pt" viewBox="0 0 512.000000 512.000000"
 preserveAspectRatio="xMidYMid meet">

<g transform="translate(0.000000,512.000000) scale(0.100000,-0.100000)"
fill="#000000" stroke="none">
<path d="M2387 4340 c-384 -81 -677 -446 -704 -877 l-6 -101 -166 -4 c-155 -3
-170 -5 -222 -29 -70 -33 -125 -87 -156 -155 -30 -65 -28 -40 -89 -1101 -48
-821 -48 -834 -32 -915 52 -251 249 -451 494 -503 103 -22 2005 -22 2109 0
243 51 441 253 492 502 17 80 16 97 -26 820 -69 1181 -65 1133 -94 1195 -31
70 -85 124 -156 157 -52 24 -67 26 -222 29 l-166 4 -6 101 c-36 578 -526 987
-1050 877z m308 -155 c39 -8 113 -36 165 -61 159 -79 297 -236 365 -417 29
-78 55 -216 55 -293 l0 -54 -720 0 -720 0 0 54 c0 218 102 453 262 600 162
151 384 215 593 171z m-1015 -1100 c0 -110 1 -117 25 -140 15 -16 36 -25 55
-25 19 0 40 9 55 25 24 23 25 30 25 140 l0 115 720 0 720 0 0 -115 c0 -110 1
-117 25 -140 32 -33 78 -33 110 0 24 23 25 30 25 140 l0 116 158 -3 c155 -3
159 -4 194 -30 22 -17 42 -45 52 -70 11 -33 28 -262 67 -946 46 -791 51 -911
40 -964 -37 -178 -178 -326 -356 -373 -89 -23 -1981 -23 -2070 0 -132 35 -259
137 -317 255 -57 118 -57 90 1 1082 53 928 57 963 99 1001 45 41 73 47 225 47
l147 0 0 -115z"/>
</g>
</svg>
